<?xml version="1.0" standalone="no"?><!DOCTYPE svg PUBLIC "-//W3C//DTD SVG 1.1//EN" "http://www.w3.org/Graphics/SVG/1.1/DTD/svg11.dtd"><svg t="1610350483065" class="icon" viewBox="0 0 1024 1024" version="1.1" xmlns="http://www.w3.org/2000/svg" p-id="2749" xmlns:xlink="http://www.w3.org/1999/xlink" width="200" height="200"><defs><style type="text/css"></style></defs><path d="M513.024 26.112c-33.792 0-67.072 3.584-99.84 10.24-22.016 4.608-36.352 26.112-31.744 48.64 4.608 22.016 26.112 36.352 48.64 31.744 27.136-5.632 55.296-8.704 82.944-8.704 223.232 0 404.48 181.248 404.48 404.48s-181.248 404.48-404.48 404.48-404.48-181.248-404.48-404.48c0-80.896 24.064-159.232 69.12-226.304 13.312-19.968 28.672-38.4 45.568-55.808 15.872-16.384 15.36-41.984-1.024-57.856-16.384-15.872-41.984-15.36-57.856 1.024-19.968 20.48-38.4 43.008-54.784 67.072C55.296 321.024 26.624 415.232 26.624 512.512c0 268.288 218.112 486.4 486.4 486.4s486.4-218.112 486.4-486.4-218.112-486.4-486.4-486.4z" fill="#FF9900" p-id="2750"></path><path d="M218.112 444.928c0 22.528 18.432 40.96 40.96 40.96h508.416c16.384 0 31.744-9.728 37.888-25.088s3.072-32.768-8.704-44.544l-132.096-132.096c-15.872-15.872-41.984-15.872-57.856 0-15.872 15.872-15.872 41.984 0 57.856L669.184 404.48h-409.6c-23.04-0.512-41.472 17.92-41.472 40.448zM808.448 580.608c0-22.528-18.432-40.96-40.96-40.96H259.072c-16.384 0-31.744 9.728-37.888 25.088s-3.072 32.768 8.704 44.544l132.096 132.096c8.192 8.192 18.432 11.776 29.184 11.776s20.992-4.096 29.184-11.776c15.872-15.872 15.872-41.984 0-57.856l-62.464-62.464h409.6c22.528 0.512 40.96-17.92 40.96-40.448z" fill="#FF9900" p-id="2751"></path></svg>